<svg width="1920" height="1080" viewBox="0 0 1920 1080" fill="none" xmlns="http://www.w3.org/2000/svg">
<g id="Frame 36" clip-path="url(#clip0)">
<rect width="1920" height="1080" fill="url(#paint0_linear)"/>
<g id="bg">
<path id="Vector" d="M525.17 137.803C588.53 112.561 718.214 115.937 774.754 137.804C828.219 152.825 888.76 117.422 943.667 137.804C998.573 158.186 1054.4 164.711 1105.48 179.264C1156.57 193.817 1194.2 209.514 1250.2 225.123C1306.19 240.732 1387.62 249.859 1441.47 272.918C1495.32 295.976 1521.67 341.35 1573.28 363.473C1624.9 385.596 1693.36 387.302 1751.15 405.654C1808.94 424.005 1891.86 462.261 1920 473.582V889.039H604.429C604.429 889.039 461.81 163.046 525.17 137.803Z" fill="url(#paint1_linear)"/>
<path id="Vector_2" d="M-18 0C45.3915 12.5031 228.896 31.3442 362.349 75.0183C495.802 118.692 644.205 221.021 782.718 262.045C921.23 303.068 1068.65 290.861 1193.42 321.159C1318.2 351.456 1410.29 402.29 1531.39 443.83C1652.48 485.37 1855.23 549.302 1920 570.397V879.103H-18V0Z" fill="url(#paint2_linear)"/>
<path id="Vector 1181" d="M1024.18 399.156C935.341 460.779 736 353 736 353V525.301L1923 744V587.89C1923.84 568.503 1723.29 486.381 1597.91 525.301C1472.52 564.221 1425 415.831 1317.11 436.613C1209.23 457.396 1113.01 337.534 1024.18 399.156Z" fill="url(#paint3_linear)"/>
<path id="Vector 1180" d="M1920 742.671C1612.04 556.371 1279.49 657.983 1063.84 527.399C848.197 396.815 1063.84 1089 1063.84 1089H1920V742.671Z" fill="url(#paint4_linear)"/>
<path id="Vector 1179" d="M779.498 390.49C701.18 268.431 358.144 116.658 -18 132.159V1088.86H1920V853.068C1920 853.068 1782.62 931.913 1711.26 853.068C1639.9 774.223 1596.98 712.154 1461 725.918C1325.02 739.683 1282.67 584.728 1156.42 590.229C1030.17 595.73 857.816 512.549 779.498 390.49Z" fill="url(#paint5_linear)"/>
<path id="Vector 1178 bg-color-red" d="M300.426 650.259C27.895 446.333 -18 382.459 -18 382.459V1088.86H1491.8C1491.8 1088.86 1249.08 1014.58 993.11 890.38C737.139 766.179 572.958 854.184 300.426 650.259Z" fill="url(#paint6_linear)"/>
<g id="Rectangle 31" filter="url(#filter0_b)">
<path d="M0 0H1920V1080H0V0Z" fill="#10121B" fill-opacity="0.4"/>
</g>
</g>
</g>
<defs>
<filter id="filter0_b" x="-20" y="-20" width="1960" height="1120" filterUnits="userSpaceOnUse" color-interpolation-filters="sRGB">
<feFlood flood-opacity="0" result="BackgroundImageFix"/>
<feGaussianBlur in="BackgroundImage" stdDeviation="10"/>
<feComposite in2="SourceAlpha" operator="in" result="effect1_backgroundBlur"/>
<feBlend mode="normal" in="SourceGraphic" in2="effect1_backgroundBlur" result="shape"/>
</filter>
<linearGradient id="paint0_linear" x1="1.09197e-05" y1="174.5" x2="1920" y2="219" gradientUnits="userSpaceOnUse">
<stop stop-color="#141333"/>
<stop offset="1" stop-color="#292759"/>
</linearGradient>
<linearGradient id="paint1_linear" x1="1356.07" y1="-101.468" x2="1023.53" y2="890.051" gradientUnits="userSpaceOnUse">
<stop stop-color="#252654"/>
<stop offset="0.614286" stop-color="#262858"/>
</linearGradient>
<linearGradient id="paint2_linear" x1="951" y1="-1.30996e-05" x2="713.961" y2="1045.12" gradientUnits="userSpaceOnUse">
<stop stop-color="#1A1A40"/>
<stop offset="0.742857" stop-color="#1C1B43"/>
</linearGradient>
<linearGradient id="paint3_linear" x1="1329.5" y1="353" x2="1347.15" y2="887.044" gradientUnits="userSpaceOnUse">
<stop stop-color="#AB322D"/>
<stop offset="1" stop-color="#741F2B"/>
</linearGradient>
<linearGradient id="paint4_linear" x1="1802.31" y1="250.857" x2="1447.04" y2="1090.29" gradientUnits="userSpaceOnUse">
<stop stop-color="#874FCA"/>
<stop offset="1" stop-color="#9F52D4"/>
</linearGradient>
<linearGradient id="paint5_linear" x1="1168.17" y1="431.666" x2="951" y2="893.219" gradientUnits="userSpaceOnUse">
<stop offset="0.0861831" stop-color="#499EE9"/>
<stop offset="1" stop-color="#592E9F"/>
</linearGradient>
<linearGradient id="paint6_linear" x1="970.162" y1="430.72" x2="7.31317" y2="1128.13" gradientUnits="userSpaceOnUse">
<stop stop-color="#B2352F"/>
<stop offset="1" stop-color="#590F1C"/>
</linearGradient>
<clipPath id="clip0">
<rect width="1920" height="1080" fill="white"/>
</clipPath>
</defs>
</svg>
